<?xml version="1.0" encoding="UTF-8" standalone="no"?>
<svg
   xmlns:dc="http://purl.org/dc/elements/1.1/"
   xmlns:cc="http://creativecommons.org/ns#"
   xmlns:rdf="http://www.w3.org/1999/02/22-rdf-syntax-ns#"
   xmlns:svg="http://www.w3.org/2000/svg"
   xmlns="http://www.w3.org/2000/svg"
   xmlns:sodipodi="http://sodipodi.sourceforge.net/DTD/sodipodi-0.dtd"
   xmlns:inkscape="http://www.inkscape.org/namespaces/inkscape"
   width="40px"
   height="40px"
   viewBox="0 0 40 40"
   version="1.1"
   id="svg7"
   sodipodi:docname="Logo-Icon-Dark.svg"
   inkscape:version="1.0.2 (394de47547, 2021-03-26)">
  <metadata
     id="metadata13">
    <rdf:RDF>
      <cc:Work
         rdf:about="">
        <dc:format>image/svg+xml</dc:format>
        <dc:type
           rdf:resource="http://purl.org/dc/dcmitype/StillImage" />
        <dc:title>C3202EAE-216B-4360-8062-174984DBEE59@1.00x</dc:title>
      </cc:Work>
    </rdf:RDF>
  </metadata>
  <defs
     id="defs11" />
  <sodipodi:namedview
     pagecolor="#ffffff"
     bordercolor="#666666"
     borderopacity="1"
     objecttolerance="10"
     gridtolerance="10"
     guidetolerance="10"
     inkscape:pageopacity="0"
     inkscape:pageshadow="2"
     inkscape:window-width="1920"
     inkscape:window-height="1052"
     id="namedview9"
     showgrid="false"
     inkscape:pagecheckerboard="true"
     inkscape:zoom="22.625"
     inkscape:cx="19.944588"
     inkscape:cy="20"
     inkscape:window-x="0"
     inkscape:window-y="0"
     inkscape:window-maximized="1"
     inkscape:current-layer="svg7" />
  <title
     id="title2">C3202EAE-216B-4360-8062-174984DBEE59@1.00x</title>
  <g
     id="Brand"
     stroke="none"
     stroke-width="1"
     fill="none"
     fill-rule="evenodd"
     style="fill:#ffffff">
    <g
       id="Logo"
       fill="#12141E"
       style="fill:#ffffff">
      <path
         d="M30.9470736,23.6488379 L23.6491179,23.6488379 L23.6491179,16.3508821 L16.3508821,16.3508821 L16.3508821,9.05264632 L30.9470736,9.05264632 L30.9470736,23.6488379 Z M9.05292635,30.9467936 L16.3508821,30.9467936 L16.3508821,23.6488379 L9.05292635,23.6488379 L9.05292635,30.9467936 Z M0,4.37160459 L0,35.6283954 C0,38.0425651 1.95715486,40 4.37160459,40 L35.6283954,40 C38.0428451,40 40,38.0425651 40,35.6283954 L40,4.37160459 C40,1.95715486 38.0428451,0 35.6283954,0 L4.37160459,0 C1.95715486,0 0,1.95715486 0,4.37160459 L0,4.37160459 Z"
         id="Fill-12"
         style="fill:#ffffff" />
    </g>
  </g>
</svg>
